HIERARCHY
ROOT hip
{
  OFFSET 0.00112043 5.09927 -9.65472
  CHANNELS 6 Xposition Yposition Zposition Zrotation Xrotation Yrotation
  JOINT abdomen
  {
    OFFSET 0 -1.186 -1.5018
    CHANNELS 3 Zrotation Xrotation Yrotation
    JOINT abdomen2
    {
      OFFSET 0 9.964 0.2134
      CHANNELS 3 Zrotation Xrotation Yrotation
      JOINT chest
      {
        OFFSET 0 13.134 -3.2573
        CHANNELS 3 Zrotation Xrotation Yrotation
        JOINT neck
        {
          OFFSET 0 20.686 -1.6905
          CHANNELS 3 Zrotation Xrotation Yrotation
          JOINT head
          {
            OFFSET 0 7.238 -0.1237
            CHANNELS 3 Zrotation Xrotation Yrotation
            End Site
            {
              OFFSET 0 0 0
            }
          }
        }
        JOINT lCollar
        {
          OFFSET 1.7069 20.075 5.0056
          CHANNELS 3 Zrotation Xrotation Yrotation
          JOINT lShldr
          {
            OFFSET 13.6458 -0.047 -4.849
            CHANNELS 3 Zrotation Xrotation Yrotation
            JOINT lForeArm
            {
              OFFSET 28.3255 -0.9759 2.2888
              CHANNELS 3 Zrotation Xrotation Yrotation
              JOINT lHand
              {
                OFFSET 22.1583 -0.53 10.8316
                CHANNELS 3 Zrotation Xrotation Yrotation
                JOINT lThumb1
                {
                  OFFSET 0.786 0.112 2.5817
                  CHANNELS 3 Zrotation Xrotation Yrotation
                  JOINT lThumb2
                  {
                    OFFSET 0.3601 -0.878 4.2331
                    CHANNELS 3 Zrotation Xrotation Yrotation
                    JOINT lThumb2_End
                    {
                      OFFSET 1.8127 -1.216 2.2227
                      CHANNELS 3 Zrotation Xrotation Yrotation
                      End Site
                      {
                        OFFSET 0.0181 -0.0122 0.0222
                      }
                    }
                  }
                }
                JOINT lCarpal1
                {
                  OFFSET 0.9571 1.114 1.7695
                  CHANNELS 3 Zrotation Xrotation Yrotation
                  JOINT lIndex1
                  {
                    OFFSET 4.1246 0.487 4.1451
                    CHANNELS 3 Zrotation Xrotation Yrotation
                    JOINT lIndex2
                    {
                      OFFSET 3.4052 -1.454 2.7682
                      CHANNELS 3 Zrotation Xrotation Yrotation
                      JOINT lIndex2_End
                      {
                        OFFSET 1.4531 -1.795 1.2713
                        CHANNELS 3 Zrotation Xrotation Yrotation
                        End Site
                        {
                          OFFSET 0.0145 -0.0179 0.0127
                        }
                      }
                    }
                  }
                  JOINT lMid1
                  {
                    OFFSET 5.6954 0.21 2.1184
                    CHANNELS 3 Zrotation Xrotation Yrotation
                    JOINT lMid2
                    {
                      OFFSET 3.9766 -1.54 2.3863
                      CHANNELS 3 Zrotation Xrotation Yrotation
                      JOINT lMid2_End
                      {
                        OFFSET 1.4042 -1.926 1.125
                        CHANNELS 3 Zrotation Xrotation Yrotation
                        End Site
                        {
                          OFFSET 0.014 -0.0193 0.0113
                        }
                      }
                    }
                  }
                }
                JOINT lCarpal2
                {
                  OFFSET 2.0956 0.66 -0.3894
                  CHANNELS 3 Zrotation Xrotation Yrotation
                  JOINT lRing1
                  {
                    OFFSET 5.0395 -0.09 2.4971
                    CHANNELS 3 Zrotation Xrotation Yrotation
                    JOINT lRing2
                    {
                      OFFSET 3.7921 -1.552 1.4806
                      CHANNELS 3 Zrotation Xrotation Yrotation
                      JOINT lRing2_End
                      {
                        OFFSET 1.4655 -1.808 0.9609
                        CHANNELS 3 Zrotation Xrotation Yrotation
                        End Site
                        {
                          OFFSET 0.0147 -0.0181 0.0096
                        }
                      }
                    }
                  }
                  JOINT lPinky1
                  {
                    OFFSET 4.9141 -1.269 0.3591
                    CHANNELS 3 Zrotation Xrotation Yrotation
                    JOINT lPinky2
                    {
                      OFFSET 3.1477 -1.685 0.8462
                      CHANNELS 3 Zrotation Xrotation Yrotation
                      JOINT lPinky2_End
                      {
                        OFFSET 0.8055 -1.585 0.7955
                        CHANNELS 3 Zrotation Xrotation Yrotation
                        End Site
                        {
                          OFFSET 0.0081 -0.0158 0.008
                        }
                      }
                    }
                  }
                }
              }
            }
          }
        }
        JOINT rCollar
        {
          OFFSET -1.7069 20.075 5.0056
          CHANNELS 3 Zrotation Xrotation Yrotation
          JOINT rShldr
          {
            OFFSET -13.6458 -0.047 -4.849
            CHANNELS 3 Zrotation Xrotation Yrotation
            JOINT rForeArm
            {
              OFFSET -28.3255 -0.9759 2.2888
              CHANNELS 3 Zrotation Xrotation Yrotation
              JOINT rHand
              {
                OFFSET -22.1583 -0.53 10.8316
                CHANNELS 3 Zrotation Xrotation Yrotation
                JOINT rThumb1
                {
                  OFFSET -0.786 0.112 2.5817
                  CHANNELS 3 Zrotation Xrotation Yrotation
                  JOINT rThumb2
                  {
                    OFFSET -0.3601 -0.878 4.2331
                    CHANNELS 3 Zrotation Xrotation Yrotation
                    JOINT rThumb2_End
                    {
                      OFFSET -1.8127 -1.216 2.2227
                      CHANNELS 3 Zrotation Xrotation Yrotation
                      End Site
                      {
                        OFFSET -0.0181 -0.0122 0.0222
                      }
                    }
                  }
                }
                JOINT rCarpal1
                {
                  OFFSET -0.9571 1.114 1.7695
                  CHANNELS 3 Zrotation Xrotation Yrotation
                  JOINT rIndex1
                  {
                    OFFSET -4.1246 0.487 4.1451
                    CHANNELS 3 Zrotation Xrotation Yrotation
                    JOINT rIndex2
                    {
                      OFFSET -3.4052 -1.454 2.7682
                      CHANNELS 3 Zrotation Xrotation Yrotation
                      JOINT rIndex2_End
                      {
                        OFFSET -1.4531 -1.795 1.2713
                        CHANNELS 3 Zrotation Xrotation Yrotation
                        End Site
                        {
                          OFFSET -0.0145 -0.018 0.0127
                        }
                      }
                    }
                  }
                  JOINT rMid1
                  {
                    OFFSET -5.6954 0.21 2.1184
                    CHANNELS 3 Zrotation Xrotation Yrotation
                    JOINT rMid2
                    {
                      OFFSET -3.9766 -1.54 2.3863
                      CHANNELS 3 Zrotation Xrotation Yrotation
                      JOINT rMid2_End
                      {
                        OFFSET -1.4042 -1.926 1.125
                        CHANNELS 3 Zrotation Xrotation Yrotation
                        End Site
                        {
                          OFFSET -0.014 -0.0193 0.0113
                        }
                      }
                    }
                  }
                }
                JOINT rCarpal2
                {
                  OFFSET -2.0956 0.66 -0.3894
                  CHANNELS 3 Zrotation Xrotation Yrotation
                  JOINT rRing1
                  {
                    OFFSET -5.0395 -0.09 2.4971
                    CHANNELS 3 Zrotation Xrotation Yrotation
                    JOINT rRing2
                    {
                      OFFSET -3.7921 -1.552 1.4806
                      CHANNELS 3 Zrotation Xrotation Yrotation
                      JOINT rRing2_End
                      {
                        OFFSET -1.4655 -1.808 0.9609
                        CHANNELS 3 Zrotation Xrotation Yrotation
                        End Site
                        {
                          OFFSET -0.0147 -0.0181 0.0096
                        }
                      }
                    }
                  }
                  JOINT rPinky1
                  {
                    OFFSET -4.9141 -1.269 0.3592
                    CHANNELS 3 Zrotation Xrotation Yrotation
                    JOINT rPinky2
                    {
                      OFFSET -3.1477 -1.685 0.8462
                      CHANNELS 3 Zrotation Xrotation Yrotation
                      JOINT rPinky2_End
                      {
                        OFFSET -0.8055 -1.585 0.7955
                        CHANNELS 3 Zrotation Xrotation Yrotation
                        End Site
                        {
                          OFFSET -0.0081 -0.0158 0.008
                        }
                      }
                    }
                  }
                }
              }
            }
          }
        }
      }
    }
  }
  JOINT lThigh
  {
    OFFSET 8.367 -8.2066 0.5982
    CHANNELS 3 Zrotation Xrotation Yrotation
    JOINT lShin
    {
      OFFSET 2.1923 -43.463 -0.4932
      CHANNELS 3 Zrotation Xrotation Yrotation
      JOINT lFoot
      {
        OFFSET 0.7333 -45.8593 -2.6451
        CHANNELS 3 Zrotation Xrotation Yrotation
        End Site
        {
          OFFSET 2.6618 -4.2699 12.3931
        }
      }
    }
  }
  JOINT rThigh
  {
    OFFSET -8.367 -8.2066 0.5982
    CHANNELS 3 Zrotation Xrotation Yrotation
    JOINT rShin
    {
      OFFSET -2.1923 -43.463 -0.4931
      CHANNELS 3 Zrotation Xrotation Yrotation
      JOINT rFoot
      {
        OFFSET -0.7333 -45.8593 -2.6451
        CHANNELS 3 Zrotation Xrotation Yrotation
        End Site
        {
          OFFSET -2.6618 -4.2699 12.3931
        }
      }
    }
  }
}
MOTION
Frames:	4
Frame Time:	0.0333333
1.03927 53.4248 20.0079 0 23.55 -0 0.333628 2.25982 -0.501167 0.687845 4.51657 -1.01669 0.687845 4.51658 -1.01669 -3.54281e-005 1.49141 1.83117e-005 -4.55742e-007 -1.77439 2.36307e-007 -21.7986 29.9858 -5.04603 -80.4454 -52.3869 -49.3715 -90.7887 4.69005 6.60338 142.45 20.3539 -87.0354 -3.18055e-015 -6.36111e-015 3.18055e-015 4.60367e-007 -6.82749e-007 -2.1561e-007 -3.18055e-015 -7.95139e-015 1.27222e-014 -2.64834e-031 -4.77083e-015 -3.18055e-015 -4.76702e-030 1.43125e-014 1.90833e-014 4.60367e-007 -6.82749e-007 -2.1561e-007 -3.18055e-015 -4.77083e-015 -3.18055e-015 -4.76702e-030 1.43125e-014 1.90833e-014 4.60367e-007 -6.82749e-007 -2.1561e-007 -3.18055e-015 -4.77083e-015 -3.18055e-015 -2.64834e-031 -4.77083e-015 -3.18055e-015 -4.76702e-030 1.43125e-014 1.90833e-014 4.60367e-007 -6.82749e-007 -2.1561e-007 -3.18055e-015 -4.77083e-015 -3.18055e-015 -4.76702e-030 1.43125e-014 1.90833e-014 4.60367e-007 -6.82749e-007 -2.1561e-007 -3.18055e-015 -4.77083e-015 -3.18055e-015 20.928 27.974 5.25224 80.6538 -52.3351 50.3733 88.5856 3.87844 -6.69079 -143.271 21.4238 92.4115 1.76556e-031 -3.18055e-015 3.18055e-015 -4.58622e-007 -6.8711e-007 2.07288e-007 -3.18055e-015 -6.36111e-015 -0 1.76556e-031 -3.18055e-015 3.18055e-015 9.54166e-015 1.59028e-015 6.36111e-015 -4.58622e-007 -6.8711e-007 2.07288e-007 0 0 -0 9.54166e-015 1.59028e-015 6.36111e-015 -4.58622e-007 -6.8711e-007 2.07288e-007 0 0 -0 1.76556e-031 -3.18055e-015 3.18055e-015 9.54166e-015 1.59028e-015 6.36111e-015 -4.58622e-007 -6.8711e-007 2.07288e-007 0 0 -0 9.54166e-015 1.59028e-015 6.36111e-015 -4.58622e-007 -6.8711e-007 2.07288e-007 0 0 -0 131.216 -65.2634 133.028 161.534 80.8261 -157.816 6.70581 -6.25468 9.48814 -129.62 -64.5116 -129.814 -159.214 81.7261 155.547 -4.98046 -4.8609 -8.1409 
1.03904 53.344 19.7755 0 24.3395 -0 0.335773 2.0645 -0.498324 0.690184 4.12595 -1.00974 0.690184 4.12595 -1.00974 -9.17638e-006 0.420464 2.86704e-006 -5.51413e-007 -3.10917 4.46874e-007 -21.7986 29.9858 -5.04602 -80.4454 -52.3869 -49.3715 -91.0579 4.76492 6.65446 142.653 20.5542 -86.9278 4.60577e-007 -6.82627e-007 -2.15748e-007 -9.54166e-015 6.36111e-015 -0 4.60577e-007 -6.82627e-007 -2.15748e-007 3.18055e-015 3.18055e-015 -0 4.60577e-007 -6.82627e-007 -2.15748e-007 -3.18055e-015 6.36111e-015 -3.18055e-015 4.60577e-007 -6.82627e-007 -2.15748e-007 4.60577e-007 -6.82627e-007 -2.15748e-007 -3.18055e-015 6.36111e-015 -3.18055e-015 4.60577e-007 -6.82627e-007 -2.15748e-007 3.18055e-015 3.18055e-015 -0 4.60577e-007 -6.82627e-007 -2.15748e-007 -3.18055e-015 6.36111e-015 -3.18055e-015 4.60577e-007 -6.82627e-007 -2.15748e-007 4.60577e-007 -6.82627e-007 -2.15748e-007 -3.18055e-015 6.36111e-015 -3.18055e-015 4.60577e-007 -6.82627e-007 -2.15748e-007 20.928 27.9741 5.2522 80.6538 -52.3351 50.3733 88.8484 3.95342 -6.73462 -143.482 21.6293 92.3148 -3.18055e-015 -4.77083e-015 -0 9.54166e-015 -1.59028e-014 -6.36111e-015 3.18055e-015 -7.95139e-015 -0 -3.18055e-015 3.18055e-015 -0 -3.18055e-015 -6.36111e-015 1.59028e-014 -6.36111e-015 -1.59028e-014 -3.18055e-015 -9.54166e-015 -1.27222e-014 -0 -3.18055e-015 -6.36111e-015 1.59028e-014 -6.36111e-015 -1.59028e-014 -3.18055e-015 -9.54166e-015 -1.27222e-014 -0 -3.18055e-015 3.18055e-015 -0 -3.18055e-015 -6.36111e-015 1.59028e-014 -6.36111e-015 -1.59028e-014 -3.18055e-015 -9.54166e-015 -1.27222e-014 -0 -3.18055e-015 -6.36111e-015 1.59028e-014 -6.36111e-015 -1.59028e-014 -3.18055e-015 -9.54166e-015 -1.27222e-014 -0 133.831 -65.0571 135.356 161.529 80.8257 -157.797 6.36501 -5.78612 9.98576 -132.136 -64.3543 -132.042 -159.209 81.7257 155.528 -4.62927 -4.40736 -8.65398 
1.03878 53.2619 19.543 0 25.1288 -0 0.337911 1.8692 -0.495459 0.692544 3.73536 -1.00275 0.692545 3.73538 -1.00275 -8.38791e-006 -0.651392 -1.63569e-005 5.75916e-008 -4.44575 -4.45979e-009 -21.7986 29.9859 -5.046 -80.4454 -52.3869 -49.3715 -91.3271 4.83954 6.70594 142.857 20.7549 -86.8207 9.21584e-007 -1.365e-006 -4.31769e-007 1.38238e-006 -2.0475e-006 -6.47654e-007 4.60792e-007 -6.82501e-007 -2.15885e-007 -3.18055e-015 -3.18055e-015 6.36111e-015 9.21584e-007 -1.365e-006 -4.31769e-007 1.38238e-006 -2.0475e-006 -6.47654e-007 4.60792e-007 -6.82501e-007 -2.15885e-007 9.21584e-007 -1.365e-006 -4.31769e-007 1.38238e-006 -2.0475e-006 -6.47654e-007 4.60792e-007 -6.82501e-007 -2.15885e-007 -3.18055e-015 -3.18055e-015 6.36111e-015 9.21584e-007 -1.365e-006 -4.31769e-007 1.38238e-006 -2.0475e-006 -6.47654e-007 4.60792e-007 -6.82501e-007 -2.15885e-007 9.21584e-007 -1.365e-006 -4.31769e-007 1.38238e-006 -2.0475e-006 -6.47654e-007 4.60792e-007 -6.82501e-007 -2.15885e-007 20.9281 27.9741 5.25215 80.6537 -52.3351 50.3733 89.1113 4.02821 -6.77879 -143.694 21.8352 92.2187 0 0 -0 8.82781e-032 1.59028e-015 -3.18055e-015 0 3.18055e-015 -0 -0 0 3.18055e-015 3.18055e-015 -1.59028e-015 6.36111e-015 -6.36111e-015 -4.77083e-015 -3.18055e-015 -6.36111e-015 0 -3.18055e-015 3.18055e-015 -1.59028e-015 6.36111e-015 -6.36111e-015 -4.77083e-015 -3.18055e-015 -6.36111e-015 0 -3.18055e-015 -0 0 3.18055e-015 3.18055e-015 -1.59028e-015 6.36111e-015 -6.36111e-015 -4.77083e-015 -3.18055e-015 -6.36111e-015 0 -3.18055e-015 3.18055e-015 -1.59028e-015 6.36111e-015 -6.36111e-015 -4.77083e-015 -3.18055e-015 -6.36111e-015 0 -3.18055e-015 136.399 -64.8056 137.636 161.527 80.8245 -157.782 6.0196 -5.32108 10.4852 -134.617 -64.1538 -134.233 -159.207 81.7244 155.513 -4.27346 -3.95752 -9.16896 
1.03848 53.1787 19.3106 0 25.918 -0 0.340051 1.674 -0.492583 0.694937 3.34488 -0.995738 0.694937 3.34489 -0.995738 -6.67418e-006 -1.72456 -1.26833e-005 1.76405e-007 -5.78381 2.31796e-007 -21.7986 29.9859 -5.04601 -80.4454 -52.3869 -49.3715 -91.5964 4.91391 6.7577 143.061 20.956 -86.7143 -4.61011e-007 6.82372e-007 2.1602e-007 6.36111e-015 7.95139e-015 3.18055e-015 6.36111e-015 -3.18055e-015 -0 0 0 -0 -4.61011e-007 6.82372e-007 2.1602e-007 -6.36111e-015 6.36111e-015 -0 -3.18055e-015 1.59028e-015 3.18055e-015 -4.61011e-007 6.82372e-007 2.1602e-007 -6.36111e-015 6.36111e-015 -0 -3.18055e-015 1.59028e-015 3.18055e-015 0 0 -0 -4.61011e-007 6.82372e-007 2.1602e-007 -6.36111e-015 6.36111e-015 -0 -3.18055e-015 1.59028e-015 3.18055e-015 -4.61011e-007 6.82372e-007 2.1602e-007 -6.36111e-015 6.36111e-015 -0 -3.18055e-015 1.59028e-015 3.18055e-015 20.9281 27.9741 5.25216 80.6538 -52.3351 50.3733 89.3743 4.10277 -6.82334 -143.905 22.0414 92.1232 3.18055e-015 3.18055e-015 3.18055e-015 4.59285e-007 6.86754e-007 -2.07519e-007 4.59285e-007 6.86754e-007 -2.07519e-007 3.18055e-015 3.18055e-015 -0 -0 0 3.18055e-015 4.59285e-007 6.86754e-007 -2.07519e-007 4.59285e-007 6.86754e-007 -2.07519e-007 -0 0 3.18055e-015 4.59285e-007 6.86754e-007 -2.07519e-007 4.59285e-007 6.86754e-007 -2.07519e-007 3.18055e-015 3.18055e-015 -0 -0 0 3.18055e-015 4.59285e-007 6.86754e-007 -2.07519e-007 4.59285e-007 6.86754e-007 -2.07519e-007 -0 0 3.18055e-015 4.59285e-007 6.86754e-007 -2.07519e-007 4.59285e-007 6.86754e-007 -2.07519e-007 138.912 -64.5105 139.861 161.526 80.8227 -157.769 5.66965 -4.85951 10.9864 -137.055 -63.9116 -136.381 -159.207 81.7225 155.501 -3.91308 -3.51137 -9.68583 
